<mxfile host="app.diagrams.net" agent="Mozilla/5.0 (Windows NT 10.0; Win64; x64) AppleWebKit/537.36 (KHTML, like Gecko) Chrome/131.0.0.0 Safari/537.36" version="25.0.3">
  <diagram id="C5RBs43oDa-KdzZeNtuy" name="Page-1">
    <mxGraphModel grid="0" page="1" gridSize="10" guides="1" tooltips="1" connect="1" arrows="1" fold="1" pageScale="1" pageWidth="827" pageHeight="1169" background="#FFFFFF" math="0" shadow="0">
      <root>
        <mxCell id="WIyWlLk6GJQsqaUBKTNV-0" />
        <mxCell id="WIyWlLk6GJQsqaUBKTNV-1" parent="WIyWlLk6GJQsqaUBKTNV-0" />
        <mxCell id="bjTIlEo7LCRD7hOh7oIT-11" value="" style="edgeStyle=orthogonalEdgeStyle;rounded=0;orthogonalLoop=1;jettySize=auto;html=1;strokeColor=#333333;fontColor=#FFFFFF;" edge="1" parent="WIyWlLk6GJQsqaUBKTNV-1" source="WIyWlLk6GJQsqaUBKTNV-3" target="WIyWlLk6GJQsqaUBKTNV-7">
          <mxGeometry relative="1" as="geometry" />
        </mxCell>
        <mxCell id="WIyWlLk6GJQsqaUBKTNV-3" value="Activation du système" style="rounded=1;whiteSpace=wrap;html=1;fontSize=12;glass=0;strokeWidth=1;shadow=0;labelBackgroundColor=none;fillColor=#FFFFFF;strokeColor=#000000;fontColor=#1A1A1A;" vertex="1" parent="WIyWlLk6GJQsqaUBKTNV-1">
          <mxGeometry x="315" y="86" width="120" height="40" as="geometry" />
        </mxCell>
        <mxCell id="bjTIlEo7LCRD7hOh7oIT-19" style="edgeStyle=orthogonalEdgeStyle;rounded=0;orthogonalLoop=1;jettySize=auto;html=1;exitX=0;exitY=0.5;exitDx=0;exitDy=0;entryX=0.5;entryY=0;entryDx=0;entryDy=0;strokeColor=#1A1A1A;fontColor=#FFFFFF;" edge="1" parent="WIyWlLk6GJQsqaUBKTNV-1" source="WIyWlLk6GJQsqaUBKTNV-6" target="bjTIlEo7LCRD7hOh7oIT-12">
          <mxGeometry relative="1" as="geometry" />
        </mxCell>
        <mxCell id="bjTIlEo7LCRD7hOh7oIT-20" style="edgeStyle=orthogonalEdgeStyle;rounded=0;orthogonalLoop=1;jettySize=auto;html=1;exitX=1;exitY=0.5;exitDx=0;exitDy=0;entryX=0.5;entryY=0;entryDx=0;entryDy=0;strokeColor=#1A1A1A;fontColor=#FFFFFF;" edge="1" parent="WIyWlLk6GJQsqaUBKTNV-1" source="WIyWlLk6GJQsqaUBKTNV-6" target="bjTIlEo7LCRD7hOh7oIT-15">
          <mxGeometry relative="1" as="geometry" />
        </mxCell>
        <mxCell id="WIyWlLk6GJQsqaUBKTNV-6" value="" style="rhombus;whiteSpace=wrap;html=1;shadow=0;fontFamily=Helvetica;fontSize=12;align=center;strokeWidth=1;spacing=6;spacingTop=-4;labelBackgroundColor=none;fillColor=#FFFFFF;strokeColor=#1A1A1A;fontColor=#1A1A1A;" vertex="1" parent="WIyWlLk6GJQsqaUBKTNV-1">
          <mxGeometry x="321" y="278" width="107" height="80" as="geometry" />
        </mxCell>
        <mxCell id="bjTIlEo7LCRD7hOh7oIT-18" value="" style="edgeStyle=orthogonalEdgeStyle;rounded=0;orthogonalLoop=1;jettySize=auto;html=1;strokeColor=#333333;fontColor=#FFFFFF;" edge="1" parent="WIyWlLk6GJQsqaUBKTNV-1" source="WIyWlLk6GJQsqaUBKTNV-7" target="WIyWlLk6GJQsqaUBKTNV-6">
          <mxGeometry relative="1" as="geometry" />
        </mxCell>
        <mxCell id="WIyWlLk6GJQsqaUBKTNV-7" value="Capture des sons" style="rounded=1;whiteSpace=wrap;html=1;fontSize=12;glass=0;strokeWidth=1;shadow=0;labelBackgroundColor=none;fillColor=#FAFAFA;strokeColor=#000000;fontColor=#1A1A1A;" vertex="1" parent="WIyWlLk6GJQsqaUBKTNV-1">
          <mxGeometry x="315" y="172" width="120" height="40" as="geometry" />
        </mxCell>
        <mxCell id="bjTIlEo7LCRD7hOh7oIT-10" style="edgeStyle=orthogonalEdgeStyle;rounded=0;orthogonalLoop=1;jettySize=auto;html=1;exitX=0.5;exitY=1;exitDx=0;exitDy=0;exitPerimeter=0;strokeColor=#1A1A1A;fontColor=#FFFFFF;" edge="1" parent="WIyWlLk6GJQsqaUBKTNV-1" source="bjTIlEo7LCRD7hOh7oIT-0" target="WIyWlLk6GJQsqaUBKTNV-3">
          <mxGeometry relative="1" as="geometry" />
        </mxCell>
        <mxCell id="bjTIlEo7LCRD7hOh7oIT-0" value="" style="strokeWidth=2;html=1;shape=mxgraph.flowchart.start_1;whiteSpace=wrap;strokeColor=#FFFFFF;fontColor=#1A1A1A;fillColor=#1A1A1A;" vertex="1" parent="WIyWlLk6GJQsqaUBKTNV-1">
          <mxGeometry x="367" y="15" width="16" height="16" as="geometry" />
        </mxCell>
        <mxCell id="bjTIlEo7LCRD7hOh7oIT-21" value="" style="edgeStyle=orthogonalEdgeStyle;rounded=0;orthogonalLoop=1;jettySize=auto;html=1;strokeColor=#1A1A1A;fontColor=#FFFFFF;" edge="1" parent="WIyWlLk6GJQsqaUBKTNV-1" source="bjTIlEo7LCRD7hOh7oIT-12" target="bjTIlEo7LCRD7hOh7oIT-13">
          <mxGeometry relative="1" as="geometry" />
        </mxCell>
        <mxCell id="bjTIlEo7LCRD7hOh7oIT-12" value="&lt;font color=&quot;#000000&quot;&gt;Transcription de la Parole&lt;/font&gt;" style="rounded=1;whiteSpace=wrap;html=1;fontSize=12;glass=0;strokeWidth=1;shadow=0;labelBackgroundColor=none;fillColor=#FAFAFA;strokeColor=#333333;fontColor=#1A1A1A;" vertex="1" parent="WIyWlLk6GJQsqaUBKTNV-1">
          <mxGeometry x="121" y="361" width="120" height="40" as="geometry" />
        </mxCell>
        <mxCell id="bjTIlEo7LCRD7hOh7oIT-24" style="edgeStyle=orthogonalEdgeStyle;rounded=0;orthogonalLoop=1;jettySize=auto;html=1;exitX=0.5;exitY=1;exitDx=0;exitDy=0;strokeColor=#000000;fontColor=#FFFFFF;" edge="1" parent="WIyWlLk6GJQsqaUBKTNV-1" source="bjTIlEo7LCRD7hOh7oIT-13" target="bjTIlEo7LCRD7hOh7oIT-29">
          <mxGeometry relative="1" as="geometry">
            <mxPoint x="330" y="572" as="targetPoint" />
          </mxGeometry>
        </mxCell>
        <mxCell id="bjTIlEo7LCRD7hOh7oIT-13" value="Affichage de la transcription" style="rounded=1;whiteSpace=wrap;html=1;fontSize=12;glass=0;strokeWidth=1;shadow=0;labelBackgroundColor=none;fillColor=#FFFFFF;strokeColor=#000000;fontColor=#1A1A1A;" vertex="1" parent="WIyWlLk6GJQsqaUBKTNV-1">
          <mxGeometry x="121" y="464" width="120" height="40" as="geometry" />
        </mxCell>
        <mxCell id="bjTIlEo7LCRD7hOh7oIT-23" style="edgeStyle=orthogonalEdgeStyle;rounded=0;orthogonalLoop=1;jettySize=auto;html=1;exitX=0.5;exitY=1;exitDx=0;exitDy=0;strokeColor=#000000;fontColor=#FFFFFF;entryX=0.601;entryY=0.214;entryDx=0;entryDy=0;entryPerimeter=0;" edge="1" parent="WIyWlLk6GJQsqaUBKTNV-1" source="bjTIlEo7LCRD7hOh7oIT-14" target="bjTIlEo7LCRD7hOh7oIT-29">
          <mxGeometry relative="1" as="geometry">
            <mxPoint x="401" y="616" as="targetPoint" />
          </mxGeometry>
        </mxCell>
        <mxCell id="bjTIlEo7LCRD7hOh7oIT-45" value="" style="edgeStyle=orthogonalEdgeStyle;rounded=0;orthogonalLoop=1;jettySize=auto;html=1;" edge="1" parent="WIyWlLk6GJQsqaUBKTNV-1" source="bjTIlEo7LCRD7hOh7oIT-14" target="bjTIlEo7LCRD7hOh7oIT-15">
          <mxGeometry relative="1" as="geometry" />
        </mxCell>
        <mxCell id="bjTIlEo7LCRD7hOh7oIT-14" value="&lt;font color=&quot;#000000&quot;&gt;Alerte visuelle&lt;/font&gt;" style="rounded=1;whiteSpace=wrap;html=1;fontSize=12;glass=0;strokeWidth=1;shadow=0;labelBackgroundColor=none;fillColor=#FAFAFA;strokeColor=#000000;fontColor=#1A1A1A;arcSize=50;" vertex="1" parent="WIyWlLk6GJQsqaUBKTNV-1">
          <mxGeometry x="513" y="461" width="120" height="40" as="geometry" />
        </mxCell>
        <mxCell id="bjTIlEo7LCRD7hOh7oIT-22" value="" style="edgeStyle=orthogonalEdgeStyle;rounded=0;orthogonalLoop=1;jettySize=auto;html=1;strokeColor=#1A1A1A;fontColor=#FFFFFF;" edge="1" parent="WIyWlLk6GJQsqaUBKTNV-1" source="bjTIlEo7LCRD7hOh7oIT-15" target="bjTIlEo7LCRD7hOh7oIT-14">
          <mxGeometry relative="1" as="geometry" />
        </mxCell>
        <mxCell id="bjTIlEo7LCRD7hOh7oIT-15" value="&lt;font color=&quot;#000000&quot;&gt;Détection bruit ambiant&lt;/font&gt;" style="rounded=1;whiteSpace=wrap;html=1;fontSize=12;glass=0;strokeWidth=1;shadow=0;labelBackgroundColor=none;fillColor=#FFFFFF;strokeColor=#1A1A1A;fontColor=#1A1A1A;" vertex="1" parent="WIyWlLk6GJQsqaUBKTNV-1">
          <mxGeometry x="513" y="361" width="120" height="40" as="geometry" />
        </mxCell>
        <mxCell id="bjTIlEo7LCRD7hOh7oIT-35" value="" style="edgeStyle=orthogonalEdgeStyle;rounded=0;orthogonalLoop=1;jettySize=auto;html=1;strokeColor=#000000;" edge="1" parent="WIyWlLk6GJQsqaUBKTNV-1" source="bjTIlEo7LCRD7hOh7oIT-17" target="bjTIlEo7LCRD7hOh7oIT-27">
          <mxGeometry relative="1" as="geometry" />
        </mxCell>
        <mxCell id="bjTIlEo7LCRD7hOh7oIT-37" style="edgeStyle=orthogonalEdgeStyle;rounded=0;orthogonalLoop=1;jettySize=auto;html=1;strokeColor=#1A1A1A;entryX=1;entryY=0.5;entryDx=0;entryDy=0;exitX=1;exitY=0.5;exitDx=0;exitDy=0;" edge="1" parent="WIyWlLk6GJQsqaUBKTNV-1" source="bjTIlEo7LCRD7hOh7oIT-17" target="WIyWlLk6GJQsqaUBKTNV-3">
          <mxGeometry relative="1" as="geometry">
            <mxPoint x="704" y="138" as="targetPoint" />
            <mxPoint x="483" y="706" as="sourcePoint" />
            <Array as="points">
              <mxPoint x="441" y="696" />
              <mxPoint x="653" y="696" />
              <mxPoint x="653" y="106" />
            </Array>
          </mxGeometry>
        </mxCell>
        <mxCell id="bjTIlEo7LCRD7hOh7oIT-17" value="&lt;font color=&quot;#333333&quot;&gt;Gestion des priorités&lt;/font&gt;" style="rounded=1;whiteSpace=wrap;html=1;fontSize=12;glass=0;strokeWidth=1;shadow=0;labelBackgroundColor=none;fillColor=#FFFFFF;strokeColor=#000000;fontColor=#1A1A1A;" vertex="1" parent="WIyWlLk6GJQsqaUBKTNV-1">
          <mxGeometry x="321" y="679" width="120" height="40" as="geometry" />
        </mxCell>
        <mxCell id="bjTIlEo7LCRD7hOh7oIT-27" value="" style="points=[[0.145,0.145,0],[0.5,0,0],[0.855,0.145,0],[1,0.5,0],[0.855,0.855,0],[0.5,1,0],[0.145,0.855,0],[0,0.5,0]];shape=mxgraph.bpmn.event;html=1;verticalLabelPosition=bottom;labelBackgroundColor=#ffffff;verticalAlign=top;align=center;perimeter=ellipsePerimeter;outlineConnect=0;aspect=fixed;outline=end;symbol=terminate2;strokeColor=#999999;fontColor=#1A1A1A;fillColor=#000000;perimeterSpacing=0;fillStyle=auto;" vertex="1" parent="WIyWlLk6GJQsqaUBKTNV-1">
          <mxGeometry x="359.5" y="772" width="43" height="43" as="geometry" />
        </mxCell>
        <mxCell id="bjTIlEo7LCRD7hOh7oIT-29" value="" style="line;strokeWidth=4;html=1;perimeter=backbonePerimeter;points=[];outlineConnect=0;strokeColor=#000000;fillColor=#000000;gradientColor=none;" vertex="1" parent="WIyWlLk6GJQsqaUBKTNV-1">
          <mxGeometry x="160" y="614" width="402" height="10" as="geometry" />
        </mxCell>
        <mxCell id="bjTIlEo7LCRD7hOh7oIT-33" value="" style="edgeStyle=elbowEdgeStyle;elbow=vertical;endArrow=classic;html=1;curved=0;rounded=0;endSize=8;startSize=8;strokeColor=#000000;entryX=0.5;entryY=0;entryDx=0;entryDy=0;" edge="1" parent="WIyWlLk6GJQsqaUBKTNV-1" target="bjTIlEo7LCRD7hOh7oIT-17">
          <mxGeometry width="50" height="50" relative="1" as="geometry">
            <mxPoint x="381.5" y="621" as="sourcePoint" />
            <mxPoint x="380.5" y="654" as="targetPoint" />
          </mxGeometry>
        </mxCell>
        <mxCell id="bjTIlEo7LCRD7hOh7oIT-39" value="&lt;font color=&quot;#1a1a1a&quot;&gt;Parole&lt;/font&gt;" style="text;html=1;align=center;verticalAlign=middle;whiteSpace=wrap;rounded=0;" vertex="1" parent="WIyWlLk6GJQsqaUBKTNV-1">
          <mxGeometry x="202" y="292" width="83" height="30" as="geometry" />
        </mxCell>
        <mxCell id="bjTIlEo7LCRD7hOh7oIT-40" value="Bruit Ambiant" style="text;html=1;align=center;verticalAlign=middle;whiteSpace=wrap;rounded=0;" vertex="1" parent="WIyWlLk6GJQsqaUBKTNV-1">
          <mxGeometry x="455" y="292" width="99" height="30" as="geometry" />
        </mxCell>
        <mxCell id="bjTIlEo7LCRD7hOh7oIT-41" style="edgeStyle=orthogonalEdgeStyle;rounded=0;orthogonalLoop=1;jettySize=auto;html=1;exitX=0.5;exitY=1;exitDx=0;exitDy=0;" edge="1" parent="WIyWlLk6GJQsqaUBKTNV-1" source="bjTIlEo7LCRD7hOh7oIT-40" target="bjTIlEo7LCRD7hOh7oIT-40">
          <mxGeometry relative="1" as="geometry" />
        </mxCell>
        <mxCell id="bjTIlEo7LCRD7hOh7oIT-42" style="edgeStyle=orthogonalEdgeStyle;rounded=0;orthogonalLoop=1;jettySize=auto;html=1;exitX=0.5;exitY=1;exitDx=0;exitDy=0;" edge="1" parent="WIyWlLk6GJQsqaUBKTNV-1" source="bjTIlEo7LCRD7hOh7oIT-39" target="bjTIlEo7LCRD7hOh7oIT-39">
          <mxGeometry relative="1" as="geometry" />
        </mxCell>
        <mxCell id="bjTIlEo7LCRD7hOh7oIT-46" value="[Désactivation du système ]" style="text;html=1;align=center;verticalAlign=middle;resizable=0;points=[];autosize=1;strokeColor=none;fillColor=none;" vertex="1" parent="WIyWlLk6GJQsqaUBKTNV-1">
          <mxGeometry x="383" y="732" width="165" height="26" as="geometry" />
        </mxCell>
      </root>
    </mxGraphModel>
  </diagram>
</mxfile>
